<svg xmlns="http://www.w3.org/2000/svg" width="228" height="2144" fill="none" viewBox="0 0 228 2144"><mask id="mask0_555_1896" style="mask-type:alpha" width="228" height="744" x="0" y="1400" maskUnits="userSpaceOnUse"><rect width="228" height="744" y="1400" fill="#D9D9D9"/></mask><g mask="url(#mask0_555_1896)"><path fill="#EAEAEA" d="M309.294 1744.7C291.015 1763.35 272.207 1781.48 254 1800.04C234.807 1819.62 214.86 1843.63 194.43 1861.51C165.626 1886.73 130.046 1852.53 153.157 1824.17C163.143 1811.92 189.858 1792.82 191.086 1777.06C192.314 1761.19 172.332 1752.09 159.557 1758.77C116.868 1796.23 80.785 1841.85 38.0057 1879.27C11.9095 1891.1 -13.1825 1864.87 6.62039 1840.13C18.642 1825.12 37.6381 1808.9 51.4437 1794.63C112.125 1731.88 173.677 1670.21 235.658 1608.53C260.562 1583.73 231.983 1550.43 203.538 1566.82L57.2797 1714.1C32.5103 1738.31 -6.10942 1706.94 17.3421 1678.11C108.432 1587.37 197.164 1494.19 288.702 1403.93C314.368 1389.07 343.109 1419.35 323.933 1444.25C308.828 1463.85 283.332 1481.58 267.913 1501.13C248.272 1526.04 280.5 1557.5 304.256 1538.93L413.679 1427.97C438.457 1408.84 469.376 1437.76 451.231 1463.36L226.219 1690.85C210.755 1709.67 238.5 1730.96 256.125 1718.48L394.351 1579.42C418.941 1561.83 450.846 1588.5 434.611 1615.74C392.683 1658.56 351.231 1701.9 309.303 1744.71L309.294 1744.7Z"/><path fill="#EAEAEA" d="M217.434 1969.75C160.964 2026.39 105.504 2084.35 47.4041 2139.22C18.7941 2156.07 -15.0559 2124.02 5.10413 2095.92L366.064 1732.88C396.174 1710.78 432.934 1746.38 410.054 1776.87C345.814 1841.12 281.574 1905.41 217.424 1969.74L217.434 1969.75Z"/><circle cx="174" cy="1447" r="20" fill="#EAEAEA"/></g></svg>