<svg xmlns="http://www.w3.org/2000/svg" width="863" height="587" fill="none" viewBox="0 0 863 587"><path fill="#E50632" d="M634.393 6.97262C663.972 -16.0168 701.47 22.7639 677.506 51.9521C655.848 73.8906 633.538 95.2022 612.33 117.571C607.989 122.149 600.493 127.639 599.39 134.091C596.431 151.42 614.934 159.366 628.069 150.084C646.267 134.002 662.635 112.76 680.972 97.2099C711.279 71.5042 749.392 111.658 725.029 141.232L626.232 240.688C615.359 255.321 630.648 271.573 646.109 263.083L699.354 209.917C729.553 187.137 766.241 227.126 742.137 256.466L598.624 400.515C587.06 415.565 604.01 432.976 618.831 421.972L694.912 345.405C724.864 319.87 764.695 358.505 738.025 389.751L548.56 579.057C517.886 601.831 479.493 564.412 505.77 533.768C522.828 513.874 545.621 496.285 563.02 476.372C570.547 463.234 554.63 450.363 542.832 459.366L425.957 576.214C394.465 603.078 353.672 562.126 379.043 530.602L386.781 521.387C403.999 500.015 374.612 481.533 358.833 499.206L281.487 578.113C253.911 603.509 216.685 569.326 240.275 540.1L305.181 468.909C316.719 455.896 301.171 442.459 287.177 455.896L189.609 554.048C159.701 578.424 119.282 541.264 142.125 509.765L267 378.5C279.229 357.207 256.94 340.469 237 355C214.93 374.292 208.701 386.744 186.448 405.264C158.112 428.842 118.68 391.365 143.645 361.86C165.36 336.199 195.331 313.279 217.781 287.782C235.593 265.692 211.052 240.251 191.175 256.131C177.653 266.932 163.941 289.827 146.344 293.012C119.751 297.83 99.4301 269.851 112.977 246.374C190.586 165.634 271.4 87.6303 350.219 7.93551C380.456 -14.9085 412.836 21.435 389.024 50.7373C386.999 53.2291 372.502 64.2314 363.5 73C357.5 78.844 347.778 86.1088 332.533 104.613C313.308 125.735 339.254 149.14 360.779 132.336L496.817 7.84664C527.067 -16.2637 564.122 22.4467 539.696 52.2744L475.779 111.98C457.928 128.702 484.417 156.164 502.417 139.753C558.297 86.3529 578.88 60.7652 634.393 6.97262Z"/><circle cx="20" cy="413" r="20" fill="#E50632"/><path fill="#E50632" d="M252.923 0.248384C277.852 -2.97851 292.618 25.9591 276.856 45.0547L137.823 184.086C113.207 207.529 74.0057 177.462 96.5909 148.543L237.948 7.09125C242.076 3.70302 247.571 0.922225 252.913 0.238884L252.923 0.248384Z"/><circle cx="750" cy="62" r="20" fill="#E50632"/><circle cx="770" cy="183" r="20" fill="#E50632"/><circle cx="65.861" cy="322.861" r="30.861" fill="#E50632"/><circle cx="104" cy="437" r="20" fill="#E50632"/><circle cx="833.633" cy="110.89" r="29.292" fill="#E50632"/></svg>