<svg xmlns="http://www.w3.org/2000/svg" width="228" height="1544" fill="none" viewBox="0 0 228 1544"><mask id="mask0_555_1894" style="mask-type:alpha" width="228" height="744" x="0" y="800" maskUnits="userSpaceOnUse"><rect width="228" height="744" y="800" fill="#D9D9D9"/></mask><g mask="url(#mask0_555_1894)"><path fill="#EAEAEA" d="M80.2941 1144.7C62.0152 1163.35 43.2073 1181.48 25.0001 1200.04C5.80674 1219.62 -14.1396 1243.63 -34.5701 1261.51C-63.3735 1286.73 -98.9542 1252.53 -75.8433 1224.17C-65.8567 1211.92 -39.142 1192.82 -37.9139 1177.06C-36.6857 1161.19 -56.668 1152.09 -69.4426 1158.77C-112.132 1196.23 -148.215 1241.85 -190.994 1279.27C-217.09 1291.1 -242.183 1264.87 -222.38 1240.13C-210.358 1225.12 -191.362 1208.9 -177.556 1194.63C-116.875 1131.88 -55.3232 1070.21 6.65839 1008.53C31.5622 983.729 2.98286 950.432 -25.462 966.821L-171.72 1114.1C-196.49 1138.31 -235.109 1106.94 -211.658 1078.11C-120.568 987.369 -31.8359 894.186 59.7022 803.933C85.3681 789.073 114.109 819.348 94.9333 844.246C79.8279 863.847 54.3324 881.583 38.9132 901.129C19.2716 926.045 51.4996 957.503 75.256 938.93L184.679 827.966C209.457 808.838 240.376 837.757 222.231 863.355L-2.78139 1090.85C-18.2454 1109.67 9.50017 1130.96 27.1247 1118.48L165.351 979.425C189.941 961.825 221.846 988.497 205.611 1015.74C163.683 1058.56 122.231 1101.9 80.303 1144.71L80.2941 1144.7Z"/><path fill="#EAEAEA" d="M-11.5659 1369.75C-68.0359 1426.39 -123.496 1484.35 -181.596 1539.22C-210.206 1556.07 -244.056 1524.02 -223.896 1495.92L137.064 1132.88C167.174 1110.78 203.934 1146.38 181.054 1176.87C116.814 1241.12 52.5742 1305.41 -11.5758 1369.74L-11.5659 1369.75Z"/></g></svg>