<svg xmlns="http://www.w3.org/2000/svg" width="25" height="24" fill="none" viewBox="0 0 25 24"><path fill="#fff" d="M9.47974 21L15.4797 18.9L20.1297 20.7C20.4631 20.8333 20.7714 20.7958 21.0547 20.5875C21.3381 20.3792 21.4797 20.1 21.4797 19.75V5.75C21.4797 5.53333 21.4172 5.34167 21.2922 5.175C21.1672 5.00833 20.9964 4.88333 20.7797 4.8L15.4797 3L9.47974 5.1L4.82974 3.3C4.4964 3.16667 4.18807 3.20417 3.90474 3.4125C3.6214 3.62083 3.47974 3.9 3.47974 4.25V18.25C3.47974 18.4667 3.54224 18.6583 3.66724 18.825C3.79224 18.9917 3.96307 19.1167 4.17974 19.2L9.47974 21ZM10.4797 18.55V6.85L14.4797 5.45V17.15L10.4797 18.55ZM8.47974 18.55L5.47974 17.55V5.7L8.47974 6.85V18.55ZM19.4797 18.3L16.4797 17.15V5.45L19.4797 6.45V18.3Z"/></svg>